<svg width="1440" height="1024" viewBox="0 0 1440 1024" fill="none" xmlns="http://www.w3.org/2000/svg">
<g clip-path="url(#clip0_1_3)">
<rect width="1440" height="1024" fill="#CACACA"/>
<rect x="298" y="147" width="338" height="40" rx="20" fill="#4A4A4A"/>
<rect x="579" y="147" width="57" height="19" fill="#4A4A4A"/>
<rect x="596" y="20" width="40" height="98" fill="#4A4A4A"/>
<rect x="298" y="20" width="40" height="150" fill="#4A4A4A"/>
<circle cx="363" cy="222" r="15" fill="#4A4A4A"/>
<circle cx="415" cy="222" r="15" fill="#4A4A4A"/>
<circle cx="467" cy="222" r="15" fill="#4A4A4A"/>
<circle cx="519" cy="222" r="15" fill="#4A4A4A"/>
<circle cx="571" cy="222" r="15" fill="#4A4A4A"/>
<circle cx="227" cy="824" r="15" fill="#4A4A4A"/>
<circle cx="227" cy="884" r="15" fill="#4A4A4A"/>
<circle cx="227" cy="944" r="15" fill="#4A4A4A"/>
<circle cx="55" cy="824" r="15" fill="#4A4A4A"/>
<circle cx="55" cy="884" r="15" fill="#4A4A4A"/>
<circle cx="55" cy="944" r="15" fill="#4A4A4A"/>
<rect x="91" y="809" width="100" height="150" rx="25" fill="#4A4A4A"/>
<circle cx="472" cy="824" r="15" fill="#4A4A4A"/>
<circle cx="472" cy="884" r="15" fill="#4A4A4A"/>
<circle cx="472" cy="944" r="15" fill="#4A4A4A"/>
<circle cx="300" cy="824" r="15" fill="#4A4A4A"/>
<circle cx="300" cy="884" r="15" fill="#4A4A4A"/>
<circle cx="300" cy="944" r="15" fill="#4A4A4A"/>
<rect x="336" y="809" width="100" height="150" rx="25" fill="#4A4A4A"/>
<rect width="20" height="500" fill="#4A4A4A"/>
<rect y="580" width="20" height="444" fill="#4A4A4A"/>
<rect x="1420" y="20" width="20" height="1024" fill="#4A4A4A"/>
<rect width="1440" height="20" fill="#4A4A4A"/>
<rect y="1004" width="1440" height="20" fill="#4A4A4A"/>
<rect x="554" y="775" width="20" height="229" fill="#4A4A4A"/>
<circle cx="667" cy="969" r="15" fill="#4A4A4A"/>
<circle cx="727" cy="969" r="15" fill="#4A4A4A"/>
<circle cx="667" cy="799" r="15" fill="#4A4A4A"/>
<circle cx="727" cy="799" r="15" fill="#4A4A4A"/>
<rect x="647" y="834" width="100" height="100" rx="25" fill="#4A4A4A"/>
<circle cx="987" cy="969" r="15" fill="#4A4A4A"/>
<circle cx="1047" cy="969" r="15" fill="#4A4A4A"/>
<circle cx="987" cy="799" r="15" fill="#4A4A4A"/>
<circle cx="1047" cy="799" r="15" fill="#4A4A4A"/>
<rect x="967" y="834" width="100" height="100" rx="25" fill="#4A4A4A"/>
<circle cx="1147" cy="969" r="15" fill="#4A4A4A"/>
<circle cx="1207" cy="969" r="15" fill="#4A4A4A"/>
<circle cx="1147" cy="799" r="15" fill="#4A4A4A"/>
<circle cx="1207" cy="799" r="15" fill="#4A4A4A"/>
<rect x="1127" y="834" width="100" height="100" rx="25" fill="#4A4A4A"/>
<circle cx="1307" cy="969" r="15" fill="#4A4A4A"/>
<circle cx="1367" cy="969" r="15" fill="#4A4A4A"/>
<circle cx="1307" cy="799" r="15" fill="#4A4A4A"/>
<circle cx="1367" cy="799" r="15" fill="#4A4A4A"/>
<rect x="1287" y="834" width="100" height="100" rx="25" fill="#4A4A4A"/>
<circle cx="827" cy="969" r="15" fill="#4A4A4A"/>
<circle cx="887" cy="969" r="15" fill="#4A4A4A"/>
<circle cx="827" cy="799" r="15" fill="#4A4A4A"/>
<circle cx="887" cy="799" r="15" fill="#4A4A4A"/>
<rect x="807" y="834" width="100" height="100" rx="25" fill="#4A4A4A"/>
<rect x="1262" y="580" width="75" height="75" rx="25" fill="#4A4A4A"/>
<circle cx="1227" cy="618" r="15" fill="#4A4A4A"/>
<circle cx="1372" cy="618" r="15" fill="#4A4A4A"/>
<rect x="1262" y="474" width="75" height="75" rx="25" fill="#4A4A4A"/>
<circle cx="1227" cy="512" r="15" fill="#4A4A4A"/>
<circle cx="1372" cy="512" r="15" fill="#4A4A4A"/>
<rect x="1262" y="368" width="75" height="75" rx="25" fill="#4A4A4A"/>
<circle cx="1227" cy="406" r="15" fill="#4A4A4A"/>
<circle cx="1372" cy="406" r="15" fill="#4A4A4A"/>
<rect x="1262" y="262" width="75" height="75" rx="25" fill="#4A4A4A"/>
<circle cx="1227" cy="300" r="15" fill="#4A4A4A"/>
<circle cx="1372" cy="300" r="15" fill="#4A4A4A"/>
<rect x="1262" y="156" width="75" height="75" rx="25" fill="#4A4A4A"/>
<circle cx="1227" cy="194" r="15" fill="#4A4A4A"/>
<circle cx="1372" cy="194" r="15" fill="#4A4A4A"/>
<rect x="1262" y="50" width="75" height="75" rx="25" fill="#4A4A4A"/>
<circle cx="1227" cy="88" r="15" fill="#4A4A4A"/>
<circle cx="1372" cy="88" r="15" fill="#4A4A4A"/>
<circle cx="790" cy="497" r="100" fill="#4A4A4A"/>
<circle cx="790" cy="368" r="15" fill="#4A4A4A"/>
<circle cx="803" cy="632" r="15" transform="rotate(180 803 632)" fill="#4A4A4A"/>
<circle cx="743" cy="625" r="15" transform="rotate(180 743 625)" fill="#4A4A4A"/>
<circle cx="852" cy="380" r="15" fill="#4A4A4A"/>
<circle cx="692" cy="590" r="15" transform="rotate(180 692 590)" fill="#4A4A4A"/>
<circle cx="893" cy="413" r="15" fill="#4A4A4A"/>
<circle cx="667" cy="534" r="15" transform="rotate(180 667 534)" fill="#4A4A4A"/>
<circle cx="918" cy="466" r="15" fill="#4A4A4A"/>
<circle cx="730" cy="380" r="15" fill="#4A4A4A"/>
<circle cx="863" cy="614" r="15" transform="rotate(180 863 614)" fill="#4A4A4A"/>
<circle cx="683" cy="420" r="15" fill="#4A4A4A"/>
<circle cx="903" cy="575" r="15" transform="rotate(180 903 575)" fill="#4A4A4A"/>
<circle cx="662" cy="474" r="15" fill="#4A4A4A"/>
<circle cx="925" cy="524" r="15" transform="rotate(180 925 524)" fill="#4A4A4A"/>
</g>
<defs>
<clipPath id="clip0_1_3">
<rect width="1440" height="1024" fill="white"/>
</clipPath>
</defs>
</svg>
