<svg width="200" height="216" viewBox="0 0 200 216" fill="none" xmlns="http://www.w3.org/2000/svg">
<rect x="5" y="8.33334" width="8.33333" height="50" transform="rotate(-90 5 8.33334)" fill="#8D8D8D"/>
<path d="M29.1668 50C18.1211 50 9.16675 41.0457 9.16675 30V8.33333H50.8334V30C50.8334 41.0457 41.8791 50 30.8334 50H29.1668Z" fill="#ADADAD"/>
<rect x="195" y="207.667" width="8.33333" height="50" transform="rotate(90 195 207.667)" fill="#8D8D8D"/>
<path d="M170.833 166C181.879 166 190.833 174.954 190.833 186V207.667H149.167V186C149.167 174.954 158.121 166 169.167 166H170.833Z" fill="#ADADAD"/>
<rect x="75" y="8.33334" width="8.33333" height="50" transform="rotate(-90 75 8.33334)" fill="#8D8D8D"/>
<path d="M99.1668 50C88.1211 50 79.1667 41.0457 79.1667 30V8.33333H120.833V30C120.833 41.0457 111.879 50 100.833 50H99.1668Z" fill="#ADADAD"/>
<rect x="125" y="207.667" width="8.33333" height="50" transform="rotate(90 125 207.667)" fill="#8D8D8D"/>
<path d="M100.833 166C111.879 166 120.833 174.954 120.833 186V207.667H79.1666V186C79.1666 174.954 88.1209 166 99.1666 166H100.833Z" fill="#ADADAD"/>
<rect x="145" y="8.33334" width="8.33333" height="50" transform="rotate(-90 145 8.33334)" fill="#8D8D8D"/>
<path d="M169.167 50C158.121 50 149.167 41.0457 149.167 30V8.33333H190.833V30C190.833 41.0457 181.879 50 170.833 50H169.167Z" fill="#ADADAD"/>
<rect x="55" y="207.667" width="8.33333" height="50" transform="rotate(90 55 207.667)" fill="#8D8D8D"/>
<path d="M30.8332 166C41.8789 166 50.8333 174.954 50.8333 186V207.667H9.16658V186C9.16658 174.954 18.1209 166 29.1666 166H30.8332Z" fill="#ADADAD"/>
<rect y="158" width="100" height="200" rx="20" transform="rotate(-90 0 158)" fill="#ADADAD"/>
</svg>
