<svg width="200" height="125" viewBox="0 0 200 125" fill="none" xmlns="http://www.w3.org/2000/svg">
<rect x="58" width="85" height="125" rx="20" fill="#ADADAD"/>
<rect x="191.667" y="12.5" width="8.33333" height="50" fill="#8D8D8D"/>
<path d="M150 36.6667C150 25.621 158.954 16.6667 170 16.6667H191.667V58.3334H170C158.954 58.3334 150 49.3791 150 38.3334V36.6667Z" fill="#ADADAD"/>
<rect x="8.33337" y="119.167" width="8.33333" height="50" transform="rotate(180 8.33337 119.167)" fill="#8D8D8D"/>
<path d="M50 95C50 106.046 41.0457 115 30 115H8.33333V73.3333H30C41.0457 73.3333 50 82.2876 50 93.3333V95Z" fill="#ADADAD"/>
<rect x="191.667" y="69.1667" width="8.33333" height="50" fill="#8D8D8D"/>
<path d="M150 93.3333C150 82.2876 158.954 73.3333 170 73.3333H191.667V115H170C158.954 115 150 106.046 150 95V93.3333Z" fill="#ADADAD"/>
<rect x="8.33337" y="62.5" width="8.33333" height="50" transform="rotate(180 8.33337 62.5)" fill="#8D8D8D"/>
<path d="M50 38.3333C50 49.379 41.0457 58.3333 30 58.3333H8.33333V16.6666H30C41.0457 16.6666 50 25.6209 50 36.6666V38.3333Z" fill="#ADADAD"/>
</svg>
