<svg width="293" height="294" viewBox="0 0 293 294" fill="none" xmlns="http://www.w3.org/2000/svg">
<circle cx="143" cy="144" r="100" fill="#4A4A4A"/>
<circle cx="143" cy="15" r="15" fill="#4A4A4A"/>
<circle cx="156" cy="279" r="15" transform="rotate(180 156 279)" fill="#4A4A4A"/>
<circle cx="96" cy="272" r="15" transform="rotate(180 96 272)" fill="#4A4A4A"/>
<circle cx="205" cy="27" r="15" fill="#4A4A4A"/>
<circle cx="45" cy="237" r="15" transform="rotate(180 45 237)" fill="#4A4A4A"/>
<circle cx="246" cy="60" r="15" fill="#4A4A4A"/>
<circle cx="20" cy="181" r="15" transform="rotate(180 20 181)" fill="#4A4A4A"/>
<circle cx="271" cy="113" r="15" fill="#4A4A4A"/>
<circle cx="83" cy="27" r="15" fill="#4A4A4A"/>
<circle cx="216" cy="261" r="15" transform="rotate(180 216 261)" fill="#4A4A4A"/>
<circle cx="36" cy="67" r="15" fill="#4A4A4A"/>
<circle cx="256" cy="222" r="15" transform="rotate(180 256 222)" fill="#4A4A4A"/>
<circle cx="15" cy="121" r="15" fill="#4A4A4A"/>
<circle cx="278" cy="171" r="15" transform="rotate(180 278 171)" fill="#4A4A4A"/>
</svg>
